<mxfile host="app.diagrams.net" agent="Mozilla/5.0 (Windows NT 10.0; Win64; x64) AppleWebKit/537.36 (KHTML, like Gecko) Chrome/141.0.0.0 Safari/537.36" version="28.2.8">
  <diagram name="Board Architecture" id="board-arch">
    <mxGraphModel dx="864" dy="471" grid="1" gridSize="10" guides="1" tooltips="1" connect="1" arrows="1" fold="1" page="1" pageScale="1" pageWidth="1920" pageHeight="1080" background="light-dark(#FFFFFF,#FFFFFF)" math="0" shadow="0">
      <root>
        <mxCell id="0" />
        <mxCell id="1" parent="0" />
        <mxCell id="title" value="01. Blue-Crab LMS 게시판 시스템 아키텍처" style="text;html=1;strokeColor=#432D57;fillColor=#76608a;align=center;verticalAlign=middle;whiteSpace=wrap;rounded=0;fontSize=32;fontStyle=1;fontColor=#ffffff;strokeWidth=3;" parent="1" vertex="1">
          <mxGeometry x="260" y="20" width="1300" height="60" as="geometry" />
        </mxCell>
        <mxCell id="client-layer-box" value="클라이언트 레이어" style="rounded=1;whiteSpace=wrap;html=1;fillColor=#1e3a5f;strokeColor=#0d1f3a;fontSize=24;fontStyle=1;fontColor=#ffffff;" parent="1" vertex="1">
          <mxGeometry x="30" y="110" width="880" height="70" as="geometry" />
        </mxCell>
        <mxCell id="react-app" value="React PWA App&#xa;게시글 CRUD + 첨부파일" style="rounded=1;whiteSpace=wrap;html=1;fillColor=#7b1fa2;strokeColor=#4a0072;fontSize=16;fontColor=#ffffff;fontStyle=1;" parent="1" vertex="1">
          <mxGeometry x="70" y="200" width="240" height="80" as="geometry" />
        </mxCell>
        <mxCell id="test-console" value="브라우저 콘솔&#xa;테스트 스크립트" style="rounded=1;whiteSpace=wrap;html=1;fillColor=#7b1fa2;strokeColor=#4a0072;fontSize=16;fontColor=#ffffff;fontStyle=1;" parent="1" vertex="1">
          <mxGeometry x="350" y="200" width="240" height="80" as="geometry" />
        </mxCell>
        <mxCell id="postman" value="Postman / cURL&#xa;API 테스트" style="rounded=1;whiteSpace=wrap;html=1;fillColor=#7b1fa2;strokeColor=#4a0072;fontSize=16;fontColor=#ffffff;fontStyle=1;" parent="1" vertex="1">
          <mxGeometry x="630" y="200" width="240" height="80" as="geometry" />
        </mxCell>
        <mxCell id="api-gateway" value="Spring Boot REST API Gateway" style="rounded=1;whiteSpace=wrap;html=1;fillColor=#f57c00;strokeColor=#bf360c;fontSize=24;fontStyle=1;fontColor=#ffffff;" parent="1" vertex="1">
          <mxGeometry x="30" y="340" width="880" height="70" as="geometry" />
        </mxCell>
        <mxCell id="jwt-auth" value="JWT Bearer Token 인증" style="rounded=1;whiteSpace=wrap;html=1;fillColor=#c62828;strokeColor=#8b0000;fontSize=18;fontStyle=1;fontColor=#ffffff;" parent="1" vertex="1">
          <mxGeometry x="30" y="430" width="280" height="50" as="geometry" />
        </mxCell>
        <mxCell id="controller-layer" value="Controller Layer (Board 패키지)" style="rounded=1;whiteSpace=wrap;html=1;fillColor=#1e3a5f;strokeColor=#0d1f3a;fontSize=24;fontStyle=1;fontColor=#ffffff;" parent="1" vertex="1">
          <mxGeometry x="30" y="510" width="880" height="70" as="geometry" />
        </mxCell>
        <mxCell id="board-controller" value="BoardController&#xa;게시글 CRUD" style="rounded=1;whiteSpace=wrap;html=1;fillColor=#60a917;strokeColor=#2D7600;fontSize=15;fontColor=#ffffff;fontStyle=1;" parent="1" vertex="1">
          <mxGeometry x="70" y="590" width="180" height="70" as="geometry" />
        </mxCell>
        <mxCell id="board-create-controller" value="BoardCreateController&#xa;게시글 생성" style="rounded=1;whiteSpace=wrap;html=1;fillColor=#60a917;strokeColor=#2D7600;fontSize=15;fontColor=#ffffff;fontStyle=1;" parent="1" vertex="1">
          <mxGeometry x="270" y="590" width="180" height="70" as="geometry" />
        </mxCell>
        <mxCell id="board-update-controller" value="BoardUpdateController&#xa;게시글 수정" style="rounded=1;whiteSpace=wrap;html=1;fillColor=#60a917;strokeColor=#2D7600;fontSize=15;fontColor=#ffffff;fontStyle=1;" parent="1" vertex="1">
          <mxGeometry x="470" y="590" width="190" height="70" as="geometry" />
        </mxCell>
        <mxCell id="board-stats-controller" value="BoardStatisticsController&#xa;통계 조회" style="rounded=1;whiteSpace=wrap;html=1;fillColor=#60a917;strokeColor=#2D7600;fontSize=15;fontColor=#ffffff;fontStyle=1;" parent="1" vertex="1">
          <mxGeometry x="680" y="590" width="200" height="70" as="geometry" />
        </mxCell>
        <mxCell id="attachment-controller" value="BoardAttachmentController&#xa;첨부파일 업로드" style="rounded=1;whiteSpace=wrap;html=1;fillColor=#8b0000;strokeColor=#5d0000;fontSize=14;fontColor=#ffffff;fontStyle=1;" parent="1" vertex="1">
          <mxGeometry x="70" y="680" width="220" height="70" as="geometry" />
        </mxCell>
        <mxCell id="attachment-download-controller" value="BoardAttachment&#xa;DownloadController&#xa;파일 다운로드" style="rounded=1;whiteSpace=wrap;html=1;fillColor=#8b0000;strokeColor=#5d0000;fontSize=14;fontColor=#ffffff;fontStyle=1;" parent="1" vertex="1">
          <mxGeometry x="370" y="680" width="220" height="70" as="geometry" />
        </mxCell>
        <mxCell id="attachment-info-controller" value="BoardAttachment&#xa;InfoController&#xa;파일 정보 조회" style="rounded=1;whiteSpace=wrap;html=1;fillColor=#8b0000;strokeColor=#5d0000;fontSize=14;fontColor=#ffffff;fontStyle=1;" parent="1" vertex="1">
          <mxGeometry x="660" y="680" width="220" height="70" as="geometry" />
        </mxCell>
        <mxCell id="service-layer" value="Service Layer (Board 패키지)" style="rounded=1;whiteSpace=wrap;html=1;fillColor=#1e3a5f;strokeColor=#0d1f3a;fontSize=24;fontStyle=1;fontColor=#ffffff;" parent="1" vertex="1">
          <mxGeometry x="990" y="110" width="880" height="70" as="geometry" />
        </mxCell>
        <mxCell id="board-service" value="BoardService&#xa;비즈니스 로직" style="rounded=1;whiteSpace=wrap;html=1;fillColor=#60a917;strokeColor=#2D7600;fontSize=15;fontColor=#ffffff;fontStyle=1;" parent="1" vertex="1">
          <mxGeometry x="1080" y="190" width="220" height="70" as="geometry" />
        </mxCell>
        <mxCell id="board-management-service" value="BoardManagementService&#xa;게시판 관리" style="rounded=1;whiteSpace=wrap;html=1;fillColor=#60a917;strokeColor=#2D7600;fontSize=15;fontColor=#ffffff;fontStyle=1;" parent="1" vertex="1">
          <mxGeometry x="1320" y="190" width="220" height="70" as="geometry" />
        </mxCell>
        <mxCell id="board-stats-service" value="BoardStatsService&#xa;통계 서비스" style="rounded=1;whiteSpace=wrap;html=1;fillColor=#60a917;strokeColor=#2D7600;fontSize=15;fontColor=#ffffff;fontStyle=1;" parent="1" vertex="1">
          <mxGeometry x="1560" y="190" width="220" height="70" as="geometry" />
        </mxCell>
        <mxCell id="attachment-service" value="BoardAttachmentService&#xa;첨부파일 서비스" style="rounded=1;whiteSpace=wrap;html=1;fillColor=#8b0000;strokeColor=#5d0000;fontSize=14;fontColor=#ffffff;fontStyle=1;" parent="1" vertex="1">
          <mxGeometry x="1080" y="270" width="220" height="70" as="geometry" />
        </mxCell>
        <mxCell id="attachment-download-service" value="BoardAttachment&#xa;DownloadService&#xa;다운로드 로직" style="rounded=1;whiteSpace=wrap;html=1;fillColor=#8b0000;strokeColor=#5d0000;fontSize=14;fontColor=#ffffff;fontStyle=1;" parent="1" vertex="1">
          <mxGeometry x="1320" y="270" width="220" height="70" as="geometry" />
        </mxCell>
        <mxCell id="attachment-info-service" value="BoardAttachment&#xa;InfoService&#xa;파일 정보 로직" style="rounded=1;whiteSpace=wrap;html=1;fillColor=#8b0000;strokeColor=#5d0000;fontSize=14;fontColor=#ffffff;fontStyle=1;" parent="1" vertex="1">
          <mxGeometry x="1560" y="270" width="220" height="70" as="geometry" />
        </mxCell>
        <mxCell id="repository-layer" value="Repository Layer (Board 패키지)" style="rounded=1;whiteSpace=wrap;html=1;fillColor=#1e3a5f;strokeColor=#0d1f3a;fontSize=24;fontStyle=1;fontColor=#ffffff;" parent="1" vertex="1">
          <mxGeometry x="990" y="370" width="880" height="70" as="geometry" />
        </mxCell>
        <mxCell id="board-repository" value="BoardRepository&#xa;JPA Repository" style="rounded=1;whiteSpace=wrap;html=1;fillColor=#7b1fa2;strokeColor=#4a0072;fontSize=16;fontColor=#ffffff;fontStyle=1;" parent="1" vertex="1">
          <mxGeometry x="1140" y="470" width="280" height="60" as="geometry" />
        </mxCell>
        <mxCell id="attachment-repository" value="BoardAttachmentRepository&#xa;첨부파일 Repository" style="rounded=1;whiteSpace=wrap;html=1;fillColor=#7b1fa2;strokeColor=#4a0072;fontSize=16;fontColor=#ffffff;fontStyle=1;" parent="1" vertex="1">
          <mxGeometry x="1440" y="470" width="280" height="60" as="geometry" />
        </mxCell>
        <mxCell id="entity-layer" value="Entity Layer (Board 패키지)" style="rounded=1;whiteSpace=wrap;html=1;fillColor=#1e3a5f;strokeColor=#0d1f3a;fontSize=24;fontStyle=1;fontColor=#ffffff;" parent="1" vertex="1">
          <mxGeometry x="990" y="550" width="880" height="70" as="geometry" />
        </mxCell>
        <mxCell id="board-entity" value="BoardTbl&#xa;게시글 엔티티" style="rounded=1;whiteSpace=wrap;html=1;fillColor=#1976d2;strokeColor=#0d47a1;fontSize=16;fontColor=#ffffff;fontStyle=1;" parent="1" vertex="1">
          <mxGeometry x="1140" y="670" width="280" height="60" as="geometry" />
        </mxCell>
        <mxCell id="attachment-entity" value="BoardAttachmentTbl&#xa;첨부파일 엔티티" style="rounded=1;whiteSpace=wrap;html=1;fillColor=#1976d2;strokeColor=#0d47a1;fontSize=16;fontColor=#ffffff;fontStyle=1;" parent="1" vertex="1">
          <mxGeometry x="1440" y="670" width="280" height="60" as="geometry" />
        </mxCell>
        <mxCell id="database" value="MariaDB Database" style="rounded=1;whiteSpace=wrap;html=1;fillColor=#2e7d32;strokeColor=#1b5e20;fontSize=24;fontStyle=1;fontColor=#ffffff;" parent="1" vertex="1">
          <mxGeometry x="990" y="800" width="360" height="70" as="geometry" />
        </mxCell>
        <mxCell id="arrow1" style="edgeStyle=orthogonalEdgeStyle;rounded=0;orthogonalLoop=1;jettySize=auto;html=1;strokeColor=light-dark(#000000,#FF8000);strokeWidth=3;" parent="1" source="react-app" target="api-gateway" edge="1">
          <mxGeometry relative="1" as="geometry" />
        </mxCell>
        <mxCell id="arrow2" style="edgeStyle=orthogonalEdgeStyle;rounded=0;orthogonalLoop=1;jettySize=auto;html=1;strokeColor=light-dark(#000000,#FF8000);strokeWidth=3;" parent="1" source="test-console" target="api-gateway" edge="1">
          <mxGeometry relative="1" as="geometry" />
        </mxCell>
        <mxCell id="arrow3" style="edgeStyle=orthogonalEdgeStyle;rounded=0;orthogonalLoop=1;jettySize=auto;html=1;strokeColor=light-dark(#000000,#FF8000);strokeWidth=3;" parent="1" source="postman" target="api-gateway" edge="1">
          <mxGeometry relative="1" as="geometry" />
        </mxCell>
        <mxCell id="arrow4" style="edgeStyle=orthogonalEdgeStyle;rounded=0;orthogonalLoop=1;jettySize=auto;html=1;strokeColor=light-dark(#000000,#FF8000);strokeWidth=3;entryX=1;entryY=0.25;entryDx=0;entryDy=0;" parent="1" source="api-gateway" target="controller-layer" edge="1">
          <mxGeometry relative="1" as="geometry">
            <mxPoint x="940" y="520" as="targetPoint" />
            <Array as="points">
              <mxPoint x="930" y="375" />
              <mxPoint x="930" y="527" />
            </Array>
          </mxGeometry>
        </mxCell>
        <mxCell id="arrow5" style="edgeStyle=orthogonalEdgeStyle;rounded=0;orthogonalLoop=1;jettySize=auto;html=1;strokeColor=light-dark(#000000,#FF8000);strokeWidth=3;exitX=1;exitY=0.75;exitDx=0;exitDy=0;" parent="1" source="controller-layer" target="service-layer" edge="1">
          <mxGeometry relative="1" as="geometry">
            <mxPoint x="980" y="550" as="sourcePoint" />
            <Array as="points">
              <mxPoint x="960" y="563" />
              <mxPoint x="960" y="145" />
            </Array>
          </mxGeometry>
        </mxCell>
        <mxCell id="arrow6" style="edgeStyle=orthogonalEdgeStyle;rounded=0;orthogonalLoop=1;jettySize=auto;html=1;strokeColor=light-dark(#000000,#FF8000);strokeWidth=3;" parent="1" source="service-layer" target="repository-layer" edge="1">
          <mxGeometry relative="1" as="geometry">
            <Array as="points">
              <mxPoint x="1890" y="160" />
              <mxPoint x="1890" y="390" />
            </Array>
          </mxGeometry>
        </mxCell>
        <mxCell id="arrow7" style="edgeStyle=orthogonalEdgeStyle;rounded=0;orthogonalLoop=1;jettySize=auto;html=1;strokeColor=light-dark(#000000,#FF8000);strokeWidth=3;" parent="1" source="repository-layer" target="entity-layer" edge="1">
          <mxGeometry relative="1" as="geometry">
            <Array as="points">
              <mxPoint x="1890" y="420" />
              <mxPoint x="1890" y="570" />
            </Array>
          </mxGeometry>
        </mxCell>
        <mxCell id="arrow8" style="edgeStyle=orthogonalEdgeStyle;rounded=0;orthogonalLoop=1;jettySize=auto;html=1;strokeColor=light-dark(#000000,#FF8000);strokeWidth=3;entryX=0.5;entryY=0;entryDx=0;entryDy=0;exitX=0.5;exitY=1;exitDx=0;exitDy=0;" parent="1" source="board-entity" target="database" edge="1">
          <mxGeometry relative="1" as="geometry">
            <mxPoint x="1430" y="1050" as="targetPoint" />
            <Array as="points">
              <mxPoint x="1280" y="760" />
              <mxPoint x="1170" y="760" />
            </Array>
          </mxGeometry>
        </mxCell>
        <mxCell id="board-types" value="&lt;blockquote style=&quot;margin: 0 0 0 40px; border: none; padding: 0px;&quot;&gt;📋 게시판 타입&lt;br&gt;0: 학사공지&lt;br&gt;1: 행정공지&lt;br&gt;2: 기타공지&lt;br&gt;3: 강의공지&lt;/blockquote&gt;" style="rounded=1;whiteSpace=wrap;html=1;fillColor=#d4af37;strokeColor=#8b7500;fontSize=15;align=left;fontColor=#000000;fontStyle=1;" parent="1" vertex="1">
          <mxGeometry x="710" y="780" width="200" height="100" as="geometry" />
        </mxCell>
        <mxCell id="legend-box" value="&lt;blockquote style=&quot;margin: 0 0 0 40px; border: none; padding: 0px;&quot;&gt;범례&lt;br&gt;게시글 관련&lt;br&gt;첨부파일 관련&lt;/blockquote&gt;" style="rounded=1;whiteSpace=wrap;html=1;fillColor=#d4af37;strokeColor=#8b7500;fontSize=14;align=left;fontColor=#000000;fontStyle=1;" parent="1" vertex="1">
          <mxGeometry x="470" y="780" width="210" height="80" as="geometry" />
        </mxCell>
        <mxCell id="legend-board" value="" style="rounded=1;whiteSpace=wrap;html=1;fillColor=#60a917;strokeColor=#2D7600;" parent="1" vertex="1">
          <mxGeometry x="599.9963157894738" y="822.5" width="46.31578947368421" height="15" as="geometry" />
        </mxCell>
        <mxCell id="legend-attachment" value="" style="rounded=1;whiteSpace=wrap;html=1;fillColor=#8b0000;strokeColor=#5d0000;" parent="1" vertex="1">
          <mxGeometry x="599.9963157894738" y="837.5" width="46.31578947368421" height="15" as="geometry" />
        </mxCell>
        <mxCell id="XD8xZ8Es7YwOj_1-wu16-1" value="MinIO" style="rounded=1;whiteSpace=wrap;html=1;fillColor=#2e7d32;strokeColor=#1b5e20;fontSize=24;fontStyle=1;fontColor=#ffffff;" vertex="1" parent="1">
          <mxGeometry x="1510" y="800" width="360" height="70" as="geometry" />
        </mxCell>
        <mxCell id="XD8xZ8Es7YwOj_1-wu16-2" style="edgeStyle=orthogonalEdgeStyle;rounded=0;orthogonalLoop=1;jettySize=auto;html=1;strokeColor=light-dark(#000000,#FF8000);strokeWidth=3;exitX=0.5;exitY=1;exitDx=0;exitDy=0;entryX=0.5;entryY=0;entryDx=0;entryDy=0;" edge="1" parent="1" source="attachment-entity" target="XD8xZ8Es7YwOj_1-wu16-1">
          <mxGeometry relative="1" as="geometry">
            <mxPoint x="1610" y="780" as="targetPoint" />
            <Array as="points">
              <mxPoint x="1580" y="770" />
              <mxPoint x="1690" y="770" />
            </Array>
            <mxPoint x="1680" y="750" as="sourcePoint" />
          </mxGeometry>
        </mxCell>
        <mxCell id="XD8xZ8Es7YwOj_1-wu16-3" style="rounded=0;orthogonalLoop=1;jettySize=auto;html=1;strokeColor=light-dark(#000000,#FF8000);strokeWidth=3;exitX=0.004;exitY=0.49;exitDx=0;exitDy=0;exitPerimeter=0;entryX=0.997;entryY=0.485;entryDx=0;entryDy=0;entryPerimeter=0;" edge="1" parent="1" source="XD8xZ8Es7YwOj_1-wu16-1" target="database">
          <mxGeometry relative="1" as="geometry">
            <mxPoint x="1360" y="835" as="targetPoint" />
            <mxPoint x="1410" y="840" as="sourcePoint" />
          </mxGeometry>
        </mxCell>
        <mxCell id="XD8xZ8Es7YwOj_1-wu16-4" value="" style="endArrow=classic;html=1;rounded=0;exitX=0.5;exitY=1;exitDx=0;exitDy=0;entryX=0.5;entryY=0;entryDx=0;entryDy=0;strokeWidth=3;strokeColor=light-dark(#000000,#FF8000);edgeStyle=orthogonalEdgeStyle;" edge="1" parent="1" source="entity-layer" target="attachment-entity">
          <mxGeometry width="50" height="50" relative="1" as="geometry">
            <mxPoint x="1460" y="730" as="sourcePoint" />
            <mxPoint x="1510" y="680" as="targetPoint" />
          </mxGeometry>
        </mxCell>
        <mxCell id="XD8xZ8Es7YwOj_1-wu16-5" value="" style="endArrow=classic;html=1;rounded=0;strokeColor=light-dark(#000000,#FF8000);strokeWidth=3;entryX=0.5;entryY=0;entryDx=0;entryDy=0;exitX=0.5;exitY=1.017;exitDx=0;exitDy=0;exitPerimeter=0;edgeStyle=orthogonalEdgeStyle;" edge="1" parent="1" source="entity-layer" target="board-entity">
          <mxGeometry width="50" height="50" relative="1" as="geometry">
            <mxPoint x="1420" y="650" as="sourcePoint" />
            <mxPoint x="1330" y="660" as="targetPoint" />
          </mxGeometry>
        </mxCell>
      </root>
    </mxGraphModel>
  </diagram>
</mxfile>
